<svg width="10" height="10" viewBox="0 0 10 10" fill="none" xmlns="http://www.w3.org/2000/svg">
<path d="M9.5 6C9.36739 6 9.24021 6.05268 9.14645 6.14645C9.05268 6.24021 9 6.36739 9 6.5V8.5C9 8.63261 8.94732 8.75979 8.85355 8.85355C8.75979 8.94732 8.63261 9 8.5 9H1.5C1.36739 9 1.24021 8.94732 1.14645 8.85355C1.05268 8.75979 1 8.63261 1 8.5V6.5C1 6.36739 0.947322 6.24021 0.853553 6.14645C0.759785 6.05268 0.632608 6 0.5 6C0.367392 6 0.240215 6.05268 0.146447 6.14645C0.0526784 6.24021 0 6.36739 0 6.5V8.5C0 8.89782 0.158035 9.27936 0.43934 9.56066C0.720644 9.84196 1.10218 10 1.5 10H8.5C8.89782 10 9.27936 9.84196 9.56066 9.56066C9.84196 9.27936 10 8.89782 10 8.5V6.5C10 6.36739 9.94732 6.24021 9.85355 6.14645C9.75979 6.05268 9.63261 6 9.5 6ZM4.645 6.855C4.69255 6.90052 4.74862 6.9362 4.81 6.96C4.86985 6.98645 4.93456 7.00012 5 7.00012C5.06544 7.00012 5.13015 6.98645 5.19 6.96C5.25138 6.9362 5.30745 6.90052 5.355 6.855L7.355 4.855C7.44915 4.76085 7.50205 4.63315 7.50205 4.5C7.50205 4.36685 7.44915 4.23915 7.355 4.145C7.26085 4.05085 7.13315 3.99795 7 3.99795C6.86685 3.99795 6.73915 4.05085 6.645 4.145L5.5 5.295V0.5C5.5 0.367392 5.44732 0.240215 5.35355 0.146447C5.25979 0.0526784 5.13261 0 5 0C4.86739 0 4.74021 0.0526784 4.64645 0.146447C4.55268 0.240215 4.5 0.367392 4.5 0.5V5.295L3.355 4.145C3.30838 4.09838 3.25304 4.0614 3.19212 4.03617C3.13121 4.01094 3.06593 3.99795 3 3.99795C2.93407 3.99795 2.86879 4.01094 2.80788 4.03617C2.74696 4.0614 2.69162 4.09838 2.645 4.145C2.59838 4.19162 2.5614 4.24696 2.53617 4.30788C2.51094 4.36879 2.49795 4.43407 2.49795 4.5C2.49795 4.56593 2.51094 4.63121 2.53617 4.69212C2.5614 4.75304 2.59838 4.80838 2.645 4.855L4.645 6.855Z" fill="black"/>
</svg>
