<svg width="20" height="13" viewBox="0 0 20 13" fill="none" xmlns="http://www.w3.org/2000/svg">
<path d="M9.60005 0L0.59205 0.0209999H0.59005C0.557692 0.015455 0.524867 0.0131103 0.49205 0.0139999C0.359612 0.016106 0.233421 0.0706763 0.141179 0.165731C0.0489357 0.260787 -0.00182115 0.388559 4.99561e-05 0.521V11.911C4.99561e-05 12.0436 0.0527285 12.1708 0.146497 12.2646C0.240265 12.3583 0.367442 12.411 0.50005 12.411H18.691C18.8237 12.411 18.9508 12.3583 19.0446 12.2646C19.1384 12.1708 19.191 12.0436 19.191 11.911V0.585C19.2017 0.514083 19.1969 0.441713 19.1771 0.3728C19.1573 0.303886 19.1229 0.240042 19.0762 0.185598C19.0295 0.131155 18.9717 0.087385 18.9066 0.0572596C18.8415 0.0271341 18.7708 0.0113572 18.699 0.0109997L9.60005 0ZM9.60005 1H9.60205L16.9611 1.01L9.60005 5.615L2.24005 1.02L9.60005 1ZM18.191 1.418V11.41H1.00005V1.422L9.33605 6.629C9.41552 6.67867 9.50734 6.705 9.60105 6.705C9.69476 6.705 9.78658 6.67867 9.86605 6.629L18.191 1.418Z" fill="white"/>
</svg>
