<svg viewBox="0 0 48 48" fill="none" xmlns="http://www.w3.org/2000/svg">
<g clip-path="url(#clip0_3514_18)">
<path fill-rule="evenodd" clip-rule="evenodd" d="M17.7038 47.976C17.7609 47.7925 17.7873 47.6011 17.7873 47.4173C17.7873 47.1628 17.7814 46.6945 17.7736 46.0821C17.7589 44.9246 17.7376 43.2521 17.7376 41.5344C9.29972 43.4255 7.5426 37.7527 7.5426 37.7527C6.18657 34.0761 4.17736 33.1311 4.17736 33.1311C1.41564 31.1878 4.37853 31.1878 4.37853 31.1878C7.44201 31.3979 9.0495 34.4441 9.0495 34.4441C11.7609 39.2758 16.1301 37.9106 17.8879 37.0701C18.1387 35.0217 18.9428 33.6036 19.7965 32.816C13.0667 32.0805 5.98602 29.3495 5.98602 17.1639C5.98602 13.6974 7.19055 10.8613 9.09917 8.65562C8.79804 7.86796 7.74315 4.61096 9.40093 0.25175C9.40093 0.25175 11.9621 -0.588766 17.737 3.50811C20.2095 2.81369 22.7593 2.46043 25.3206 2.45746C27.8818 2.45746 30.4926 2.82551 32.9035 3.50811C38.6791 -0.588766 41.2402 0.25175 41.2402 0.25175C42.898 4.61096 41.8425 7.86796 41.5414 8.65562C43.5003 10.8613 44.6551 13.6974 44.6551 17.1639C44.6551 29.3495 37.5745 32.0276 30.7944 32.816C31.8996 33.8137 32.8532 35.7043 32.8532 38.6983C32.8532 41.5404 32.8311 44.0077 32.8164 45.6455C32.809 46.4592 32.8036 47.0682 32.8036 47.4167C32.8036 47.6007 32.8301 47.7923 32.8872 47.976C30.4673 48.6438 27.9221 49 25.2955 49C22.6689 49 20.1238 48.6438 17.7038 47.976Z" fill="#D9D9D9"/>
</g>
<defs>
<clipPath id="clip0_3514_18">
<rect width="48" height="48" fill="white"/>
</clipPath>
</defs>
</svg>
