<svg width="45" height="47" viewBox="0 0 45 47" fill="none" xmlns="http://www.w3.org/2000/svg">
<path fill-rule="evenodd" clip-rule="evenodd" d="M0.677121 46.0197H10.1349V15.9774H0.677121V46.0197ZM2.39062 10.884C3.27965 11.4845 4.32665 11.8082 5.39948 11.8143C6.11767 11.829 6.83147 11.699 7.49835 11.432C8.16522 11.165 8.77151 10.7664 9.28108 10.2601C9.79065 9.7538 10.1931 9.15008 10.4644 8.48493C10.7356 7.81979 10.8702 7.10683 10.8601 6.38857C10.861 5.31572 10.544 4.26667 9.94919 3.3738C9.35439 2.48093 8.50843 1.78427 7.51808 1.37173C6.52772 0.959189 5.43735 0.849262 4.38458 1.05582C3.33181 1.26238 2.36382 1.77617 1.60278 2.53234C0.841729 3.28852 0.321735 4.25319 0.10842 5.30462C-0.104895 6.35604 -0.001971 7.44709 0.404202 8.44007C0.810376 9.43306 1.5016 10.2835 2.39062 10.884ZM35.5422 46.0459H44.9956L45 27.4622C45 18.2884 39.2991 15.1562 34.0219 15.1562C29.1423 15.1562 25.9446 18.3146 25.0316 20.1625H24.9092V15.9993H15.814V46.0459H25.2718V29.7557C25.2718 25.4134 28.024 23.2991 30.8286 23.2991C33.4846 23.2991 35.5422 24.7931 35.5422 29.6334V46.0459Z" fill="#D9D9D9"/>
</svg>
