<svg viewBox="0 0 48 48" fill="none" xmlns="http://www.w3.org/2000/svg">
<path fill-rule="evenodd" clip-rule="evenodd" d="M3.29975 21.7892C16.1846 16.2854 24.7766 12.657 29.0756 10.9039C41.3501 5.89851 43.9006 5.02902 45.563 5.00031C45.9286 4.99399 46.7462 5.08283 47.2757 5.50411C47.7229 5.85984 47.8459 6.34037 47.9048 6.67763C47.9636 7.0149 48.0369 7.7832 47.9787 8.38353C47.3135 15.2356 44.4354 31.8636 42.9711 39.538C42.3516 42.7853 41.1316 43.8741 39.9506 43.9807C37.3838 44.2122 35.4348 42.3176 32.9488 40.72C29.0587 38.2199 26.8611 36.6636 23.0851 34.224C18.7213 31.4046 21.5502 29.8551 24.0371 27.3226C24.6879 26.6599 35.9969 16.5749 36.2158 15.66C36.2432 15.5456 36.2686 15.1191 36.0101 14.8939C35.7517 14.6687 35.3703 14.7457 35.095 14.807C34.7049 14.8938 28.4904 18.9209 16.4517 26.8882C14.6877 28.0757 13.09 28.6544 11.6585 28.624C10.0804 28.5906 7.04466 27.7492 4.78794 27.03C2.01998 26.1479 -0.179935 25.6815 0.0116285 24.1833C0.111407 23.403 1.20745 22.605 3.29975 21.7892Z" fill="#F5F5F5"/>
</svg>
