<svg width="134" height="47" viewBox="0 0 134 47" fill="none" xmlns="http://www.w3.org/2000/svg">
<path d="M13.3349 13.9647C13.3349 19.1406 11.1709 20.7842 7.10995 20.7842C2.45727 20.7842 0.910645 18.4913 0.910645 13.7202V0.715734H3.97361V13.4837C3.97361 15.2251 3.85715 18.5028 7.13323 18.5028C9.83753 18.5028 10.322 16.5572 10.322 13.6187V0.715734H13.3349V13.9647Z" fill="white"/>
<path d="M95.8862 46.2832L89.894 29.2458V46.2832H87.3237V26.5665H91.8159L97.8089 43.6018V26.5665H100.567V46.2832H95.8862Z" fill="white"/>
<path d="M25.9045 20.4324L19.9139 3.39488V20.4324H17.3433V0.715855H21.8366L27.8284 17.751V0.715855H30.5854V20.4324H25.9045Z" fill="white"/>
<path d="M35.2266 20.4324V0.715855H38.3127V20.4324H35.2266Z" fill="white"/>
<path d="M100.858 20.4324V0.715855H103.945V20.4324H100.858Z" fill="white"/>
<path d="M49.4698 20.4324H45.842L40.8096 0.715855H44.0218L47.7975 17.6438L51.7142 0.715855H54.7225L49.4698 20.4324Z" fill="white"/>
<path d="M57.1543 20.4324V0.715855H67.0128V3.07188H60.2139V9.08418H66.5727V11.3617H60.2139V18.074H67.2051V20.4324H57.1543Z" fill="white"/>
<path d="M73.7026 46.2832V26.5665H83.5623V28.9228H76.7631V34.9348H83.1199V37.2126H76.7631V43.9248H83.7534V46.2832H73.7026Z" fill="white"/>
<path d="M117.811 46.2832V26.5665H127.669V28.9228H120.871V34.9348H127.23V37.2126H120.871V43.9248H127.861V46.2832H117.811Z" fill="white"/>
<path d="M78.9757 5.94369C78.9757 3.6603 77.7563 3.02022 75.8291 3.02022H73.7629V9.33425H75.3711C78.0091 9.33425 78.9757 8.64013 78.9757 5.94369ZM79.0166 20.4324C78.7369 18.5411 78.7348 15.6347 78.7136 15.2715C78.6415 13.7953 78.4495 12.8497 78.1361 12.4287C77.7703 11.9037 76.926 11.6386 75.6055 11.6386H73.7629V20.4324H70.6777V0.715855H76.4018C79.6954 0.715855 82.0994 1.49765 82.0994 5.70484C82.0994 8.35995 81.0126 9.9513 78.8454 10.4795C79.9635 10.5684 80.7345 10.9525 81.156 11.6236C81.4879 12.1346 81.7884 13.3109 81.7884 14.7815C81.7884 15.3465 81.9083 19.195 82.2019 20.4324H79.0166Z" fill="white"/>
<path d="M97.0802 15.4675C97.0802 19.008 95.1234 20.7842 91.2139 20.7842C86.835 20.7842 85.3198 19.0425 85.3198 14.9024V14.6854H88.4793V14.9024C88.4793 17.2433 89.0848 18.5294 91.2103 18.5294C93.0331 18.5294 93.9449 17.5894 93.9449 15.7096C93.9449 14.0314 92.9154 13.2416 92.043 12.6786C91.6214 12.4055 91.0624 12.0595 90.3603 11.6385C87.4206 9.84755 85.5968 8.65714 85.5968 5.45909C85.5968 2.19549 87.6349 0.340776 91.4294 0.340776C95.0629 0.340776 96.8798 1.98085 96.8798 5.26305V5.97251H93.7901V5.48211C93.7901 3.57249 92.9598 2.61975 91.2896 2.61975C89.778 2.61975 88.7333 3.48126 88.7333 5.24002C88.7333 7.19835 90.139 7.83489 91.4607 8.68017C91.9196 8.96862 92.3889 9.26859 92.8653 9.57652C95.983 11.5484 97.0802 12.448 97.0802 15.4675Z" fill="white"/>
<path d="M114.18 3.07188V20.4324H111.095V3.07188H106.5V0.715855H118.777V3.07188H114.18Z" fill="white"/>
<path d="M42.744 28.9228V46.2832H39.6576V28.9228H35.062V26.5665H47.3408V28.9228H42.744Z" fill="white"/>
<path d="M110.698 28.9228V46.2832H107.614V28.9228H103.017V26.5665H115.295V28.9228H110.698Z" fill="white"/>
<path d="M66.8113 46.2832H63.2103L60.1021 29.7394L56.6615 46.2832H53.0605L48.8271 26.5665H52.0883L55.0345 43.054L58.4483 26.5665H62.0517L65.1903 43.054L68.3557 26.5665H71.2405L66.8113 46.2832Z" fill="white"/>
<path d="M133.719 45.115C133.719 45.9915 133.001 46.7065 132.111 46.7065C131.221 46.7065 130.505 45.9915 130.505 45.115C130.505 44.2327 131.221 43.5154 132.111 43.5154C133.001 43.5154 133.719 44.2327 133.719 45.115Z" fill="white"/>
<path d="M127.697 12.9073V20.4324H124.612V12.9073L119.379 0.715855H122.795L126.374 10.1243L130.038 0.715855H133.205L127.697 12.9073Z" fill="white"/>
<path d="M10.4664 36.2464C10.4664 33.8683 10.3849 32.2214 10.2195 31.3103C9.85264 29.419 8.86972 28.4754 7.273 28.4754C5.69376 28.4754 4.69336 29.4754 4.27059 31.475C4.19605 31.8385 4.14132 32.421 4.10521 33.2223C4.06678 34.0206 4.04931 35.056 4.04931 36.3306C4.04931 37.5126 4.06445 38.5045 4.09239 39.3025C4.11919 40.1018 4.16925 40.7211 4.24146 41.157C4.40801 42.2296 4.7015 43.0196 5.12427 43.5293C5.58312 44.0921 6.29822 44.3747 7.273 44.3747C8.90583 44.3747 9.89925 43.3563 10.2475 41.3208C10.3197 40.9033 10.3756 40.2748 10.4117 39.4386C10.4489 38.6025 10.4664 37.538 10.4664 36.2464ZM13.661 36.6015C13.661 40.1652 13.3489 42.5756 12.7258 43.8292C11.8268 45.701 9.98076 46.6375 7.19033 46.6375C4.52682 46.6375 2.74492 45.7379 1.84584 43.9387C1.47897 43.1753 1.22274 42.1834 1.07716 40.9667C0.966545 40.0383 0.910645 38.5933 0.910645 36.6304C0.910645 34.2488 0.992155 32.5211 1.1587 31.4488C1.37766 29.9746 1.84583 28.8111 2.56207 27.9575C3.59159 26.7757 5.16154 26.184 7.273 26.184C9.42057 26.184 10.9905 26.7202 11.9804 27.7928C12.7165 28.5746 13.1938 29.7396 13.413 31.2849C13.5793 32.3575 13.661 34.1301 13.661 36.6015Z" fill="white"/>
<path d="M20.6197 28.9137V34.9693H26.5137V37.2587H20.6197V46.2832H17.5625V26.5665H26.8447V28.9137H20.6197Z" fill="white"/>
</svg>
