<svg width="80" height="40" viewBox="0 0 80 40" fill="none" xmlns="http://www.w3.org/2000/svg">
<path d="M19.215 29.4095L0 21.9486V17.447L19.215 9.98608V14.3209L1.62556 20.9065V18.489L19.215 25.0747V29.4095Z" fill="#F5F5F5"/>
<path d="M60.785 29.4095V25.0747L78.3744 18.489V20.9065L60.785 14.3209V9.98608L80 17.447V21.9486L60.785 29.4095Z" fill="#F5F5F5"/>
<path d="M19.1038 39.5102L32.9975 0H37.6658L23.7721 39.5102H19.1038Z" fill="#F5F5F5"/>
<path d="M35.0608 39.5102L48.9545 0H53.6228L39.7291 39.5102H35.0608Z" fill="#F5F5F5"/>
<path d="M39.6197 39.5102L38.3172 0H33.6489L34.9514 39.5102H39.6197Z" fill="#F5F5F5"/>
<path d="M55.5766 39.5102L54.2741 0H49.6058L50.9083 39.5102H55.5766Z" fill="#F5F5F5"/>
</svg>
